<?xml version="1.0" standalone="no"?>
<!DOCTYPE svg PUBLIC "-//W3C//DTD SVG 20010904//EN"
 "http://www.w3.org/TR/2001/REC-SVG-20010904/DTD/svg10.dtd">
<svg version="1.0" xmlns="http://www.w3.org/2000/svg"
 width="200.000000pt" height="200.000000pt" viewBox="0 0 200.000000 200.000000"
 preserveAspectRatio="xMidYMid meet">
<metadata>
Created by potrace 1.11, written by Peter Selinger 2001-2013
</metadata>
<g transform="translate(0.000000,200.000000) scale(0.100000,-0.100000)"
fill="#000000" stroke="none">
<path d="M867 1623 c-4 -21 -9 -71 -13 -111 -5 -56 -11 -75 -25 -83 -11 -5
-19 -20 -19 -32 0 -15 -11 -29 -31 -41 -110 -65 -170 -215 -164 -413 4 -168
48 -309 130 -416 l34 -45 -25 -17 c-14 -9 -29 -26 -33 -38 -5 -13 -18 -23 -28
-24 -11 -1 -39 -12 -63 -26 l-44 -24 -33 20 c-64 37 -183 31 -273 -14 -110
-54 -179 -198 -156 -323 l7 -36 935 0 934 0 -2 183 -3 182 -60 30 c-51 25 -73
30 -143 32 -46 1 -91 -2 -100 -6 -93 -44 -115 -57 -136 -78 l-25 -24 -19 45
c-26 59 -53 76 -144 93 -14 3 -28 13 -31 22 -5 20 -57 47 -102 55 -17 2 -31 5
-32 5 -1 1 11 24 27 52 49 83 58 147 46 359 -9 155 -18 209 -47 282 -41 103
-109 169 -189 181 -12 2 -26 10 -30 18 -5 8 -14 15 -20 15 -5 1 -16 2 -22 3
-7 1 -24 36 -37 79 -14 42 -32 90 -42 105 l-16 28 -6 -38z"/>
</g>
</svg>
